<svg width="137" height="28" viewBox="0 0 137 28" fill="none" xmlns="http://www.w3.org/2000/svg">
<g clip-path="url(#clip0_56_3248)">
<rect width="27.792" height="27.792" rx="6" fill="#0B68F7"/>
<path d="M13.6748 6.34898L13.6758 6.34995L13.6777 6.34898L13.6768 6.34995C13.885 6.35317 14.0869 6.42218 14.252 6.54917L14.3672 6.65367C14.4733 6.76667 14.5515 6.90432 14.5938 7.05503L17.4717 17.2904L18.8877 13.5169L18.9492 13.3832C19.0208 13.2555 19.1209 13.145 19.2422 13.0609L19.3691 12.9867C19.5005 12.9225 19.6455 12.8891 19.793 12.889H42.1826C42.4391 12.8891 42.6848 12.9909 42.8662 13.1722L42.9307 13.2435C43.0717 13.4157 43.1504 13.6323 43.1504 13.8568C43.1503 14.0811 43.0716 14.2971 42.9307 14.4691L42.8662 14.5404C42.6848 14.7217 42.4391 14.8235 42.1826 14.8236H20.4639L18.2461 20.7367C18.1924 20.8798 18.1058 21.0073 17.9941 21.1097L17.875 21.2035C17.7474 21.288 17.6018 21.3404 17.4512 21.3578L17.2998 21.3636C17.147 21.3572 16.9983 21.3148 16.8662 21.2406L16.7402 21.1556C16.6202 21.0607 16.5253 20.9389 16.4619 20.8011L16.4092 20.6585L13.6123 10.7152L12.541 14.1449C12.4949 14.2926 12.4142 14.4263 12.3066 14.5355L12.1904 14.6361C12.0661 14.7275 11.9224 14.7875 11.7715 14.8119L11.6182 14.8236H-9.18262C-9.40715 14.8236 -9.62375 14.7459 -9.7959 14.6048L-9.86621 14.5404C-10.0476 14.359 -10.1503 14.1133 -10.1504 13.8568C-10.1504 13.6002 -10.0477 13.3537 -9.86621 13.1722L-9.7959 13.1078C-9.62376 12.9667 -9.40712 12.8891 -9.18262 12.889H10.9072L12.7383 7.02769L12.7959 6.88316C12.8653 6.74437 12.9677 6.6234 13.0947 6.5316L13.2275 6.45152C13.3648 6.38264 13.5169 6.34828 13.6719 6.34995L13.6729 6.34898H13.6748Z" fill="white" stroke="white" stroke-width="0.3"/>
</g>
<path d="M39.0859 22.116C38.1472 22.116 37.3186 21.8887 36.5999 21.434C35.8959 20.9794 35.3459 20.334 34.9499 19.498C34.5539 18.6474 34.3559 17.65 34.3559 16.506C34.3559 15.3474 34.5539 14.3574 34.9499 13.536C35.3459 12.7 35.8959 12.0547 36.5999 11.6C37.3186 11.1454 38.1472 10.918 39.0859 10.918C39.9806 10.918 40.7579 11.138 41.4179 11.578C42.0926 12.018 42.5472 12.5974 42.7819 13.316H42.5399V7.59602C42.5399 7.14135 42.6572 6.79668 42.8919 6.56202C43.1266 6.32735 43.4639 6.21002 43.9039 6.21002C44.3439 6.21002 44.6812 6.32735 44.9159 6.56202C45.1652 6.79668 45.2899 7.14135 45.2899 7.59602V20.664C45.2899 21.1187 45.1726 21.4707 44.9379 21.72C44.7032 21.9547 44.3659 22.072 43.9259 22.072C43.4859 22.072 43.1486 21.9547 42.9139 21.72C42.6792 21.4707 42.5619 21.1187 42.5619 20.664V18.948L42.8039 19.608C42.5839 20.3707 42.1366 20.9794 41.4619 21.434C40.7872 21.8887 39.9952 22.116 39.0859 22.116ZM39.8559 20.026C40.3986 20.026 40.8752 19.894 41.2859 19.63C41.6966 19.366 42.0119 18.9774 42.2319 18.464C42.4666 17.936 42.5839 17.2834 42.5839 16.506C42.5839 15.3327 42.3346 14.46 41.8359 13.888C41.3372 13.3014 40.6772 13.008 39.8559 13.008C39.3132 13.008 38.8366 13.14 38.4259 13.404C38.0152 13.6534 37.6926 14.042 37.4579 14.57C37.2379 15.0834 37.1279 15.7287 37.1279 16.506C37.1279 17.6647 37.3772 18.5447 37.8759 19.146C38.3746 19.7327 39.0346 20.026 39.8559 20.026ZM49.5493 22.072C49.0946 22.072 48.7426 21.9547 48.4933 21.72C48.2586 21.4707 48.1413 21.1187 48.1413 20.664V12.348C48.1413 11.8934 48.2586 11.5487 48.4933 11.314C48.728 11.0794 49.058 10.962 49.4833 10.962C49.9086 10.962 50.2386 11.0794 50.4733 11.314C50.708 11.5487 50.8253 11.8934 50.8253 12.348V13.734H50.6053C50.8106 12.854 51.214 12.1867 51.8153 11.732C52.4166 11.2774 53.216 11.006 54.2133 10.918C54.5213 10.8887 54.7633 10.9694 54.9393 11.16C55.13 11.336 55.24 11.6147 55.2693 11.996C55.2986 12.3627 55.2106 12.6634 55.0053 12.898C54.8146 13.118 54.5213 13.25 54.1253 13.294L53.6413 13.338C52.7466 13.426 52.072 13.7047 51.6173 14.174C51.1626 14.6287 50.9353 15.274 50.9353 16.11V20.664C50.9353 21.1187 50.818 21.4707 50.5833 21.72C50.3486 21.9547 50.004 22.072 49.5493 22.072ZM57.5824 22.006C57.0837 22.006 56.6804 21.852 56.3724 21.544C56.0791 21.236 55.9324 20.84 55.9324 20.356C55.9324 19.8867 56.0791 19.5054 56.3724 19.212C56.6804 18.904 57.0837 18.75 57.5824 18.75C58.0957 18.75 58.4917 18.904 58.7704 19.212C59.0637 19.5054 59.2104 19.8867 59.2104 20.356C59.2104 20.84 59.0637 21.236 58.7704 21.544C58.4917 21.852 58.0957 22.006 57.5824 22.006ZM65.197 22.116C64.4196 22.116 63.723 21.9694 63.107 21.676C62.5056 21.368 62.029 20.9574 61.677 20.444C61.3396 19.9307 61.171 19.3514 61.171 18.706C61.171 17.914 61.3763 17.2907 61.787 16.836C62.1976 16.3667 62.865 16.0294 63.789 15.824C64.713 15.6187 65.9523 15.516 67.507 15.516H68.607V17.1H67.529C66.6196 17.1 65.8936 17.144 65.351 17.232C64.8083 17.32 64.4196 17.474 64.185 17.694C63.965 17.8994 63.855 18.1927 63.855 18.574C63.855 19.058 64.0236 19.454 64.361 19.762C64.6983 20.07 65.1676 20.224 65.769 20.224C66.253 20.224 66.6783 20.114 67.045 19.894C67.4263 19.6594 67.727 19.344 67.947 18.948C68.167 18.552 68.277 18.0974 68.277 17.584V15.054C68.277 14.3207 68.1156 13.7927 67.793 13.47C67.4703 13.1474 66.9276 12.986 66.165 12.986C65.7396 12.986 65.2776 13.0374 64.779 13.14C64.295 13.2427 63.7816 13.4187 63.239 13.668C62.9603 13.8 62.711 13.8367 62.491 13.778C62.2856 13.7194 62.1243 13.602 62.007 13.426C61.8896 13.2354 61.831 13.03 61.831 12.81C61.831 12.59 61.8896 12.3774 62.007 12.172C62.1243 11.952 62.3223 11.7907 62.601 11.688C63.2756 11.4094 63.921 11.2114 64.537 11.094C65.1676 10.9767 65.7396 10.918 66.253 10.918C67.309 10.918 68.1743 11.0794 68.849 11.402C69.5383 11.7247 70.0516 12.216 70.389 12.876C70.7263 13.5214 70.895 14.3574 70.895 15.384V20.664C70.895 21.1187 70.785 21.4707 70.565 21.72C70.345 21.9547 70.0296 22.072 69.619 22.072C69.2083 22.072 68.8856 21.9547 68.651 21.72C68.431 21.4707 68.321 21.1187 68.321 20.664V19.608H68.497C68.3943 20.1214 68.189 20.5687 67.881 20.95C67.5876 21.3167 67.2136 21.6027 66.759 21.808C66.3043 22.0134 65.7836 22.116 65.197 22.116ZM78.7022 26.076C77.9102 26.076 77.1402 26.0027 76.3922 25.856C75.6589 25.7094 74.9916 25.482 74.3902 25.174C74.1116 25.0274 73.9209 24.8514 73.8182 24.646C73.7302 24.4407 73.7009 24.228 73.7302 24.008C73.7742 23.8027 73.8622 23.6194 73.9942 23.458C74.1409 23.2967 74.3169 23.1867 74.5222 23.128C74.7276 23.0694 74.9402 23.0987 75.1602 23.216C75.8056 23.5387 76.4142 23.744 76.9862 23.832C77.5729 23.9347 78.0716 23.986 78.4822 23.986C79.4649 23.986 80.1982 23.744 80.6822 23.26C81.1809 22.7907 81.4302 22.0867 81.4302 21.148V19.168H81.6282C81.4082 19.916 80.9462 20.5174 80.2422 20.972C79.5529 21.412 78.7682 21.632 77.8882 21.632C76.9202 21.632 76.0769 21.412 75.3582 20.972C74.6396 20.5174 74.0822 19.8867 73.6862 19.08C73.2902 18.2734 73.0922 17.3347 73.0922 16.264C73.0922 15.4574 73.2022 14.7314 73.4222 14.086C73.6569 13.426 73.9796 12.8614 74.3902 12.392C74.8156 11.9227 75.3216 11.5634 75.9082 11.314C76.5096 11.05 77.1696 10.918 77.8882 10.918C78.7976 10.918 79.5896 11.1454 80.2642 11.6C80.9536 12.04 81.4009 12.6267 81.6062 13.36L81.3862 13.91V12.348C81.3862 11.8934 81.5036 11.5487 81.7382 11.314C81.9876 11.0794 82.3249 10.962 82.7502 10.962C83.1902 10.962 83.5276 11.0794 83.7622 11.314C83.9969 11.5487 84.1142 11.8934 84.1142 12.348V20.818C84.1142 22.5634 83.6522 23.876 82.7282 24.756C81.8042 25.636 80.4622 26.076 78.7022 26.076ZM78.6362 19.542C79.2082 19.542 79.6996 19.41 80.1102 19.146C80.5209 18.882 80.8362 18.508 81.0562 18.024C81.2909 17.5254 81.4082 16.9387 81.4082 16.264C81.4082 15.252 81.1589 14.46 80.6602 13.888C80.1616 13.3014 79.4869 13.008 78.6362 13.008C78.0642 13.008 77.5729 13.14 77.1622 13.404C76.7516 13.668 76.4289 14.042 76.1942 14.526C75.9742 15.01 75.8642 15.5894 75.8642 16.264C75.8642 17.276 76.1136 18.0754 76.6122 18.662C77.1109 19.2487 77.7856 19.542 78.6362 19.542ZM92.2656 22.116C91.0482 22.116 89.9996 21.8887 89.1196 21.434C88.2396 20.9794 87.5576 20.334 87.0736 19.498C86.6042 18.662 86.3696 17.672 86.3696 16.528C86.3696 15.4134 86.5969 14.438 87.0516 13.602C87.5209 12.766 88.1589 12.1134 88.9656 11.644C89.7869 11.16 90.7182 10.918 91.7596 10.918C92.5222 10.918 93.2042 11.0427 93.8056 11.292C94.4216 11.5414 94.9422 11.9007 95.3676 12.37C95.8076 12.8394 96.1376 13.4114 96.3576 14.086C96.5922 14.746 96.7096 15.494 96.7096 16.33C96.7096 16.594 96.6142 16.7994 96.4236 16.946C96.2476 17.078 95.9909 17.144 95.6536 17.144H88.5916V15.56H94.7736L94.4216 15.89C94.4216 15.2154 94.3189 14.6507 94.1136 14.196C93.9229 13.7414 93.6369 13.3967 93.2556 13.162C92.8889 12.9127 92.4269 12.788 91.8696 12.788C91.2536 12.788 90.7256 12.9347 90.2856 13.228C89.8602 13.5067 89.5302 13.91 89.2956 14.438C89.0756 14.9514 88.9656 15.5674 88.9656 16.286V16.44C88.9656 17.6427 89.2442 18.5447 89.8016 19.146C90.3736 19.7327 91.2096 20.026 92.3096 20.026C92.6909 20.026 93.1162 19.982 93.5856 19.894C94.0696 19.7914 94.5242 19.6227 94.9496 19.388C95.2576 19.212 95.5289 19.1387 95.7636 19.168C95.9982 19.1827 96.1816 19.2634 96.3136 19.41C96.4602 19.5567 96.5482 19.74 96.5776 19.96C96.6069 20.1654 96.5629 20.378 96.4456 20.598C96.3429 20.818 96.1596 21.0087 95.8956 21.17C95.3822 21.4927 94.7882 21.7347 94.1136 21.896C93.4536 22.0427 92.8376 22.116 92.2656 22.116ZM100.251 22.072C99.8114 22.072 99.4741 21.9547 99.2394 21.72C99.0047 21.4707 98.8874 21.1187 98.8874 20.664V12.348C98.8874 11.8934 99.0047 11.5487 99.2394 11.314C99.4741 11.0794 99.8041 10.962 100.229 10.962C100.655 10.962 100.985 11.0794 101.219 11.314C101.454 11.5487 101.571 11.8934 101.571 12.348V13.844L101.329 13.294C101.652 12.5167 102.151 11.93 102.825 11.534C103.515 11.1234 104.292 10.918 105.157 10.918C106.023 10.918 106.734 11.0794 107.291 11.402C107.849 11.7247 108.267 12.216 108.545 12.876C108.824 13.5214 108.963 14.3427 108.963 15.34V20.664C108.963 21.1187 108.846 21.4707 108.611 21.72C108.377 21.9547 108.039 22.072 107.599 22.072C107.159 22.072 106.815 21.9547 106.565 21.72C106.331 21.4707 106.213 21.1187 106.213 20.664V15.472C106.213 14.636 106.052 14.0274 105.729 13.646C105.421 13.2647 104.937 13.074 104.277 13.074C103.471 13.074 102.825 13.3307 102.341 13.844C101.872 14.3427 101.637 15.01 101.637 15.846V20.664C101.637 21.6027 101.175 22.072 100.251 22.072ZM115.893 22.116C114.954 22.116 114.125 21.8887 113.407 21.434C112.703 20.9794 112.153 20.334 111.757 19.498C111.361 18.6474 111.163 17.65 111.163 16.506C111.163 15.3474 111.361 14.3574 111.757 13.536C112.153 12.7 112.703 12.0547 113.407 11.6C114.125 11.1454 114.954 10.918 115.893 10.918C116.787 10.918 117.565 11.138 118.225 11.578C118.899 12.018 119.354 12.5974 119.589 13.316H119.347V7.59602C119.347 7.14135 119.464 6.79668 119.699 6.56202C119.933 6.32735 120.271 6.21002 120.711 6.21002C121.151 6.21002 121.488 6.32735 121.723 6.56202C121.972 6.79668 122.097 7.14135 122.097 7.59602V20.664C122.097 21.1187 121.979 21.4707 121.745 21.72C121.51 21.9547 121.173 22.072 120.733 22.072C120.293 22.072 119.955 21.9547 119.721 21.72C119.486 21.4707 119.369 21.1187 119.369 20.664V18.948L119.611 19.608C119.391 20.3707 118.943 20.9794 118.269 21.434C117.594 21.8887 116.802 22.116 115.893 22.116ZM116.663 20.026C117.205 20.026 117.682 19.894 118.093 19.63C118.503 19.366 118.819 18.9774 119.039 18.464C119.273 17.936 119.391 17.2834 119.391 16.506C119.391 15.3327 119.141 14.46 118.643 13.888C118.144 13.3014 117.484 13.008 116.663 13.008C116.12 13.008 115.643 13.14 115.233 13.404C114.822 13.6534 114.499 14.042 114.265 14.57C114.045 15.0834 113.935 15.7287 113.935 16.506C113.935 17.6647 114.184 18.5447 114.683 19.146C115.181 19.7327 115.841 20.026 116.663 20.026ZM128.49 22.116C127.713 22.116 127.016 21.9694 126.4 21.676C125.799 21.368 125.322 20.9574 124.97 20.444C124.633 19.9307 124.464 19.3514 124.464 18.706C124.464 17.914 124.669 17.2907 125.08 16.836C125.491 16.3667 126.158 16.0294 127.082 15.824C128.006 15.6187 129.245 15.516 130.8 15.516H131.9V17.1H130.822C129.913 17.1 129.187 17.144 128.644 17.232C128.101 17.32 127.713 17.474 127.478 17.694C127.258 17.8994 127.148 18.1927 127.148 18.574C127.148 19.058 127.317 19.454 127.654 19.762C127.991 20.07 128.461 20.224 129.062 20.224C129.546 20.224 129.971 20.114 130.338 19.894C130.719 19.6594 131.02 19.344 131.24 18.948C131.46 18.552 131.57 18.0974 131.57 17.584V15.054C131.57 14.3207 131.409 13.7927 131.086 13.47C130.763 13.1474 130.221 12.986 129.458 12.986C129.033 12.986 128.571 13.0374 128.072 13.14C127.588 13.2427 127.075 13.4187 126.532 13.668C126.253 13.8 126.004 13.8367 125.784 13.778C125.579 13.7194 125.417 13.602 125.3 13.426C125.183 13.2354 125.124 13.03 125.124 12.81C125.124 12.59 125.183 12.3774 125.3 12.172C125.417 11.952 125.615 11.7907 125.894 11.688C126.569 11.4094 127.214 11.2114 127.83 11.094C128.461 10.9767 129.033 10.918 129.546 10.918C130.602 10.918 131.467 11.0794 132.142 11.402C132.831 11.7247 133.345 12.216 133.682 12.876C134.019 13.5214 134.188 14.3574 134.188 15.384V20.664C134.188 21.1187 134.078 21.4707 133.858 21.72C133.638 21.9547 133.323 22.072 132.912 22.072C132.501 22.072 132.179 21.9547 131.944 21.72C131.724 21.4707 131.614 21.1187 131.614 20.664V19.608H131.79C131.687 20.1214 131.482 20.5687 131.174 20.95C130.881 21.3167 130.507 21.6027 130.052 21.808C129.597 22.0134 129.077 22.116 128.49 22.116Z" fill="#0E0A2F"/>
<defs>
<clipPath id="clip0_56_3248">
<rect width="27.792" height="27.792" rx="6" fill="white"/>
</clipPath>
</defs>
</svg>
